<svg xmlns="http://www.w3.org/2000/svg" viewBox="0 0 156.7 156.69"><defs><style>.cls-1{fill:none;stroke:#fff;stroke-miterlimit:10;stroke-width:3px;}</style></defs><g id="Layer_2" data-name="Layer 2"><g id="CREATION_OF_THE_META_RICH_CLUB" data-name="CREATION OF THE META RICH CLUB"><g id="_6" data-name="6"><path class="cls-1" d="M61,95.69a6.34,6.34,0,0,1-6.39,5.92H48.31a2.59,2.59,0,0,0-2.6,2.6v6.09a6.35,6.35,0,0,1-5.93,6.4,6.23,6.23,0,0,1-6.52-6.22v-6.27a2.59,2.59,0,0,0-2.6-2.6H23.54a6.34,6.34,0,0,1-6.38-5.77,6.22,6.22,0,0,1,6.21-6.67h7.29a2.6,2.6,0,0,0,2.6-2.6V79.28A6.34,6.34,0,0,1,39,72.9a6.24,6.24,0,0,1,6.68,6.21v7.46a2.6,2.6,0,0,0,2.6,2.6h6.43A6.21,6.21,0,0,1,61,95.69Z"/><circle class="cls-1" cx="119.27" cy="78.79" r="5.69"/><circle class="cls-1" cx="102.98" cy="95.59" r="5.69"/><circle class="cls-1" cx="119.27" cy="111.43" r="5.69"/><circle class="cls-1" cx="135.73" cy="94.79" r="5.69"/><path class="cls-1" d="M98.41,56.89h19.93A36.86,36.86,0,0,1,155.2,93.75V143.6a11.59,11.59,0,0,1-11.59,11.59h-9.26a6.76,6.76,0,0,1-6.18-3.95c-7.52-16.73-26.29-28.59-48.25-28.59s-40.74,11.86-48.25,28.59a6.77,6.77,0,0,1-6.19,3.95H13.09A11.59,11.59,0,0,1,1.5,143.6V93.75A36.86,36.86,0,0,1,38.36,56.89H88.9"/><path class="cls-1" d="M98.41,56.89s1.32-20.47,0-27.12c-.69-3.42-4-9.51-10.44-9.28s-9.76,3.73-10.89,6.73c-.66,1.75-.53,5.59-.93,7.42-.69,3.11-3,7.42-10.2,7.65s-9.4-3.77-10-6.73C54.3,26.86,56,.09,56,.09"/></g></g></g></svg>