<svg xmlns="http://www.w3.org/2000/svg" viewBox="0 0 133.8 140.43"><defs><style>.cls-1,.cls-3{fill:none;stroke-width:3px;}.cls-1,.cls-2,.cls-3{stroke:#fff;}.cls-1{stroke-miterlimit:10;}.cls-2{font-size:53.98px;fill:#fff;stroke-width:0.25px;font-family:FuturaBT-Light, Futura Lt BT;font-weight:300;}.cls-2,.cls-3{stroke-linecap:round;stroke-linejoin:round;}</style></defs><g id="Layer_2" data-name="Layer 2"><g id="CREATION_OF_THE_META_RICH_CLUB" data-name="CREATION OF THE META RICH CLUB"><g id="_1" data-name="1"><path class="cls-1" d="M83.23,111.64v17.23a10.05,10.05,0,0,1-10.06,10.06H60.76A10.06,10.06,0,0,1,50.7,128.87V111.64Z"/><path class="cls-1" d="M102.25,65.33A35.28,35.28,0,1,1,67,30.05,35.24,35.24,0,0,1,102.25,65.33Z"/><text class="cls-2" transform="translate(54.01 84.63)">S</text><line class="cls-3" x1="66.97" y1="40.8" x2="66.97" y2="89.04"/><line class="cls-3" x1="113.06" y1="40.23" x2="123.47" y2="33.48"/><line class="cls-3" x1="93.21" y1="19.89" x2="99.58" y2="9.25"/><line class="cls-3" x1="113.06" y1="91.98" x2="123.98" y2="97.85"/><line class="cls-3" x1="119.9" y1="65.98" x2="132.3" y2="66.23"/><line class="cls-3" x1="21.83" y1="40.23" x2="11.42" y2="33.48"/><line class="cls-3" x1="40.59" y1="19.89" x2="34.22" y2="9.25"/><line class="cls-3" x1="21.83" y1="91.98" x2="10.9" y2="97.85"/><line class="cls-3" x1="13.9" y1="65.98" x2="1.5" y2="66.23"/><line class="cls-3" x1="66.84" y1="13.9" x2="67.09" y2="1.5"/><path class="cls-1" d="M87.11,97.85a20.22,20.22,0,0,1-5.42,13.79H52a20.21,20.21,0,0,1-5.1-17.29,35.27,35.27,0,0,0,39.93.15A20.56,20.56,0,0,1,87.11,97.85Z"/></g></g></g></svg>