<?xml version="1.0" standalone="no"?>
<!DOCTYPE svg PUBLIC "-//W3C//DTD SVG 20010904//EN"
 "http://www.w3.org/TR/2001/REC-SVG-20010904/DTD/svg10.dtd">
<svg version="1.0" xmlns="http://www.w3.org/2000/svg"
 width="600.000000pt" height="600.000000pt" viewBox="0 0 499.000000 499.000000"
 preserveAspectRatio="xMidYMid meet">

<g transform="translate(0.000000,499.000000) scale(0.100000,-0.100000)"
fill="#ffffff" stroke="none">
<path d="M2034 4755 c-27 -13 -85 -52 -129 -85 l-80 -60 -22 -82 c-41 -148
-83 -371 -83 -435 0 -40 -4 -63 -11 -63 -20 0 -179 104 -179 117 0 6 5 15 10
18 25 15 8 27 -31 22 -56 -7 -70 -1 -63 29 7 26 -13 33 -34 12 -8 -8 -15 -8
-29 3 -39 30 77 -101 168 -192 99 -98 172 -146 208 -134 40 13 77 165 88 366
7 134 -4 178 -30 117 -9 -20 -26 -68 -38 -107 -13 -39 -24 -69 -27 -67 -6 7
18 129 45 221 40 139 52 158 128 196 l66 32 27 -20 c15 -11 31 -29 36 -40 7
-16 22 -22 63 -26 89 -9 108 -27 173 -162 32 -66 66 -145 75 -175 54 -169 129
-270 241 -324 96 -46 132 -75 180 -147 74 -112 152 -288 270 -612 25 -70 48
-126 50 -124 8 7 -66 278 -116 430 -54 161 -110 290 -168 380 -30 47 -49 64
-97 89 -100 51 -192 116 -242 172 -55 61 -184 324 -239 487 -39 117 -57 153
-86 173 -32 22 -66 20 -124 -9z m101 -6 c4 -5 -5 -28 -20 -50 -27 -42 -46 -48
-25 -9 20 37 -3 46 -47 19 -34 -20 -36 -21 -23 -4 36 49 98 73 115 44z"/>
<path d="M1266 4216 c-26 -41 -55 -121 -61 -173 -6 -47 -4 -51 74 -176 157
-248 180 -315 197 -583 6 -89 -8 -307 -23 -374 -3 -14 -3 -23 0 -20 9 8 63
213 83 315 12 63 18 140 18 255 l1 165 -36 56 c-39 59 -113 147 -223 264 -62
67 -65 72 -59 110 3 22 16 72 28 110 13 39 22 71 20 73 -1 1 -10 -9 -19 -22z"/>
<path d="M2420 3905 c0 -4 18 -33 40 -65 44 -65 73 -127 85 -178 5 -27 1 -42
-26 -84 -59 -92 -175 -150 -377 -189 l-97 -19 130 4 c109 3 143 7 210 30 116
40 170 72 250 150 l70 69 -39 9 c-66 14 -77 31 -75 115 2 84 -9 104 -76 133
-48 20 -95 33 -95 25z m137 -76 c14 -14 6 -39 -12 -39 -18 0 -28 17 -21 35 6
18 18 19 33 4z"/>
<path d="M2705 3518 c-192 -153 -360 -326 -485 -501 -69 -95 -165 -256 -157
-263 2 -2 39 42 83 99 94 122 447 479 524 530 l54 37 24 -23 c13 -12 32 -39
43 -59 24 -47 57 -170 61 -227 2 -43 2 -43 -45 -61 -81 -31 -227 -57 -227 -40
0 4 16 28 37 52 40 48 78 124 87 178 6 31 4 29 -21 -20 -27 -54 -142 -180
-213 -233 -19 -14 -31 -29 -27 -33 4 -4 45 -10 90 -12 91 -5 262 18 349 46
l53 17 -2 80 c-2 122 -66 307 -145 423 -16 23 -32 42 -36 42 -4 -1 -25 -15
-47 -32z"/>
<path d="M1362 2888 c-56 -128 -105 -273 -135 -403 -31 -130 -67 -360 -67
-430 l0 -50 41 45 c22 25 38 37 35 27 -24 -78 -56 -359 -56 -497 l0 -85 50
-49 c167 -164 345 -597 391 -953 17 -130 23 -94 16 107 -7 231 -48 416 -143
637 l-36 83 11 142 c14 171 47 327 106 503 39 115 42 126 20 100 -72 -89 -159
-304 -191 -470 -27 -143 -20 -135 -61 -75 l-36 54 11 151 c33 426 104 668 265
903 73 107 74 108 40 84 -90 -64 -240 -261 -329 -432 -48 -92 -52 -79 -25 101
24 164 62 337 106 484 19 60 32 111 31 113 -2 1 -21 -39 -44 -90z"/>
<path d="M3056 2890 c10 -59 58 -163 115 -251 76 -116 101 -180 107 -266 4
-56 1 -78 -12 -98 -26 -40 -71 -57 -150 -57 -74 0 -124 17 -196 64 l-35 23 23
-39 c13 -21 21 -40 19 -42 -7 -7 -117 26 -158 46 -53 28 -115 93 -130 137 -14
45 -6 108 18 135 22 25 73 48 107 48 72 0 183 -84 257 -194 32 -47 39 -54 33
-31 -14 62 -68 147 -130 205 -97 90 -219 122 -310 81 -42 -19 -77 -63 -89
-114 -7 -27 -8 -26 -51 35 -24 35 -56 91 -71 125 -16 34 -31 63 -35 63 -3 0
-9 -22 -13 -49 -16 -114 45 -270 140 -360 95 -90 260 -151 407 -151 33 0 101
-7 151 -17 75 -13 102 -14 164 -5 118 19 183 62 183 122 0 78 -67 206 -178
338 -62 74 -110 150 -150 237 -20 45 -22 46 -16 15z"/>
<path d="M3465 2445 c102 -256 127 -475 70 -612 -14 -33 -14 -33 6 -19 57 40
119 167 119 245 0 28 2 51 4 51 2 0 29 -11 59 -25 135 -62 427 -105 527 -78
l35 10 -55 7 c-224 28 -415 120 -587 279 -74 70 -170 176 -205 227 -9 14 3
-24 27 -85z"/>
<path d="M1990 1978 c149 -61 340 -185 340 -221 0 -7 -15 -22 -34 -35 -53 -36
-204 -188 -288 -289 -80 -96 -156 -208 -191 -280 -12 -24 -24 -43 -28 -43 -4
0 -15 33 -25 73 -20 83 -31 363 -17 417 l9 35 87 3 c75 2 87 1 87 -14 0 -35
-33 -140 -61 -196 -16 -32 -27 -58 -24 -58 12 0 71 70 110 130 56 85 129 230
120 238 -4 4 -89 7 -189 7 -133 0 -187 -3 -198 -13 -28 -23 -43 -129 -43 -307
1 -163 6 -203 41 -355 18 -74 56 -185 80 -232 l16 -32 23 57 c59 144 153 303
274 462 99 130 294 326 399 400 l83 59 -23 18 c-39 30 -191 106 -275 137 -83
31 -230 65 -323 75 -55 7 -54 6 50 -36z"/>
<path d="M3206 1970 c-47 -97 -154 -190 -476 -410 -290 -198 -423 -301 -545
-424 -160 -161 -277 -350 -362 -585 -35 -97 -83 -279 -83 -315 0 -11 31 43 69
120 81 163 211 364 267 415 154 137 370 222 754 293 14 3 -40 3 -120 2 -144
-3 -305 -30 -422 -72 -38 -13 -40 -13 -27 4 19 25 122 124 208 198 62 54 87
68 155 90 88 27 233 57 366 74 47 6 105 14 130 17 l45 6 -40 8 c-78 15 -260
21 -330 10 -38 -5 -70 -9 -71 -8 -2 1 43 41 99 89 203 172 305 284 361 396 29
58 54 132 44 132 -2 0 -12 -18 -22 -40z"/>
</g>
</svg>
