<svg xmlns="http://www.w3.org/2000/svg" viewBox="0 0 157.16 150.95"><defs><style>.cls-1{fill:none;stroke:#fff;stroke-miterlimit:10;stroke-width:3px;}</style></defs><g id="Layer_2" data-name="Layer 2"><g id="CREATION_OF_THE_META_RICH_CLUB" data-name="CREATION OF THE META RICH CLUB"><g id="_4" data-name="4"><circle class="cls-1" cx="98.49" cy="65.32" r="14.63"/><circle class="cls-1" cx="16.13" cy="54.93" r="14.63"/><circle class="cls-1" cx="79.58" cy="16.13" r="14.63"/><circle class="cls-1" cx="141.03" cy="112.63" r="14.63"/><circle class="cls-1" cx="73.73" cy="114.51" r="14.63"/><path class="cls-1" d="M14.26,69.44a66.66,66.66,0,0,0,117.65,54.62"/><path class="cls-1" d="M94.12,17.73a66.72,66.72,0,0,1,50.27,80.66"/><path class="cls-1" d="M25.55,43.75A66.58,66.58,0,0,1,65,17.74"/><path class="cls-1" d="M86.51,29a200.25,200.25,0,0,1,9.42,21.89"/><path class="cls-1" d="M111.09,72.77c7.1,4.66,19.42,14.09,24.54,26.26"/><path class="cls-1" d="M87.68,119a59.75,59.75,0,0,0,39.75-.93"/><path class="cls-1" d="M30.66,53.19c21.79-6.62,44.61-.62,56.06,3.44"/><path class="cls-1" d="M82.19,102.57c10-7.63,14-16.27,15.51-22.65"/><path class="cls-1" d="M23.81,67.38C28.33,78.48,39,98.94,59.43,111.44"/><path class="cls-1" d="M33,130.42c9.59,0,21.18-1.63,28.66-7.7"/></g></g></g></svg>