<svg xmlns="http://www.w3.org/2000/svg" viewBox="0 0 126.98 146.82"><defs><style>.cls-1{fill:none;stroke:#fff;stroke-miterlimit:10;stroke-width:3px;}</style></defs><g id="Layer_2" data-name="Layer 2"><g id="CREATION_OF_THE_META_RICH_CLUB" data-name="CREATION OF THE META RICH CLUB"><g id="_3" data-name="3"><circle class="cls-1" cx="69.67" cy="59.4" r="33.95"/><polyline class="cls-1" points="98.12 40.89 84.26 40.89 56.41 40.89 41.2 40.89"/><polyline class="cls-1" points="103.62 59.41 85.89 59.41 55.02 59.41 35.72 59.41"/><polyline class="cls-1" points="99.21 76.11 84.34 76.11 56.82 76.11 40.12 76.11"/><path class="cls-1" d="M60.67,26.66v0a62.18,62.18,0,0,0-4.26,14.21A91.83,91.83,0,0,0,55,57.35c0,.69,0,1.37,0,2.06a91.32,91.32,0,0,0,1.8,16.7,64.25,64.25,0,0,0,5.72,16.5"/><path class="cls-1" d="M79.83,27a61.37,61.37,0,0,1,4.43,13.88,89.83,89.83,0,0,1,1.65,17.73c0,.26,0,.52,0,.79a89.93,89.93,0,0,1-1.55,16.7,66.82,66.82,0,0,1-5,15.83"/><path class="cls-1" d="M125.48,59.65a59.21,59.21,0,0,1-16.25,41.05,11.68,11.68,0,0,0-3.29,8v28.59a8,8,0,0,1-8,8H53.73a8,8,0,0,1-8-8V125a7.46,7.46,0,0,0-7.47-7.46H25.16a5.63,5.63,0,0,1-5.58-5c-.86-7.17-2.89-19.19-5.21-20.63C11.28,90,2,87.17,1.51,82c-.34-3.3,7.4-12.73,13-19.08-.08-1.09-.1-2.19-.1-3.3C14.37,27.53,39.25,1.5,69.93,1.5S125.48,27.53,125.48,59.65Z"/></g></g></g></svg>