<?xml version="1.0" standalone="no"?>
<!DOCTYPE svg PUBLIC "-//W3C//DTD SVG 20010904//EN"
 "http://www.w3.org/TR/2001/REC-SVG-20010904/DTD/svg10.dtd">
<svg version="1.0" xmlns="http://www.w3.org/2000/svg"
 width="512.000000pt" height="512.000000pt" viewBox="0 0 512.000000 512.000000"
 preserveAspectRatio="xMidYMid meet">

<g transform="translate(0.000000,512.000000) scale(0.100000,-0.100000)"
fill="#ffffff" stroke="none">
<path d="M4965 5113 c-168 -37 -416 -104 -554 -148 -719 -233 -1423 -647
-1948 -1149 l-93 -88 -462 -24 c-255 -13 -479 -26 -498 -29 -30 -6 -107 -78
-534 -503 -299 -299 -504 -510 -513 -531 -18 -42 -10 -82 24 -115 34 -34 39
-34 663 9 278 19 506 35 507 35 1 0 -20 -48 -47 -107 -69 -157 -84 -204 -76
-238 5 -21 117 -140 374 -398 202 -203 379 -375 394 -383 15 -8 40 -14 56 -14
24 0 231 82 301 119 18 10 21 9 21 -6 0 -10 -16 -247 -35 -528 -19 -280 -35
-531 -35 -557 0 -84 71 -135 143 -104 38 16 1022 1001 1031 1031 3 11 14 202
25 425 12 223 23 442 27 486 l6 82 91 98 c325 354 582 721 798 1139 201 390
326 719 430 1133 62 249 66 277 40 320 -29 45 -72 60 -136 45z m-95 -250 c0
-23 -87 -326 -126 -442 -299 -885 -816 -1651 -1466 -2172 -272 -217 -594 -412
-905 -547 l-91 -39 -310 311 -310 311 52 115 c283 628 709 1161 1266 1587 489
373 1103 674 1720 844 142 39 170 44 170 32z m-2722 -1371 c-7 -10 -44 -57
-83 -106 -103 -128 -224 -303 -311 -451 -43 -71 -79 -132 -81 -134 -3 -4 -926
-70 -930 -67 -1 1 163 167 366 370 l367 367 330 18 c181 10 335 19 342 20 11
1 11 -2 0 -17z m1347 -1707 l-16 -320 -367 -367 c-201 -202 -367 -366 -369
-365 -6 7 61 933 68 942 4 6 70 47 146 93 147 88 321 209 462 323 86 69 86 69
89 42 2 -16 -4 -172 -13 -348z"/>
<path d="M3640 4183 c-179 -30 -332 -166 -381 -338 -18 -64 -18 -196 0 -259
66 -225 292 -372 522 -338 318 47 495 384 356 676 -87 182 -299 292 -497 259z
m180 -230 c49 -20 109 -80 133 -132 12 -29 20 -66 20 -105 0 -103 -46 -182
-132 -230 -167 -91 -369 12 -388 198 -20 200 179 346 367 269z"/>
<path d="M532 1637 c-496 -496 -524 -525 -529 -565 -5 -38 -2 -45 30 -77 28
-28 43 -35 74 -35 21 0 50 7 63 16 36 24 977 962 1011 1008 39 53 39 103 0
145 -25 26 -36 31 -77 31 l-48 0 -524 -523z"/>
<path d="M1105 1233 c-11 -3 -27 -10 -36 -17 -8 -6 -251 -248 -538 -539 l-524
-527 6 -43 c10 -76 92 -121 152 -84 11 7 255 249 543 538 l522 525 0 45 c0 37
-6 52 -26 73 -15 14 -32 26 -40 26 -7 0 -18 2 -26 4 -7 2 -22 1 -33 -1z"/>
<path d="M2015 1196 c-16 -8 -261 -245 -542 -528 -512 -512 -513 -514 -513
-555 0 -80 80 -135 146 -100 34 18 1027 1012 1043 1044 25 50 -1 116 -54 139
-41 17 -42 17 -80 0z"/>
</g>
</svg>
