<svg xmlns="http://www.w3.org/2000/svg" viewBox="0 0 124.83 134.9"><defs><style>.cls-1{fill:none;stroke:#fff;stroke-miterlimit:10;stroke-width:3px;}</style></defs><g id="Layer_2" data-name="Layer 2"><g id="CREATION_OF_THE_META_RICH_CLUB" data-name="CREATION OF THE META RICH CLUB"><g id="_10" data-name="10"><path class="cls-1" d="M80.51,17.11H72.75a8.87,8.87,0,0,0-7.69,4.44l-3.88,6.72a8.88,8.88,0,0,0,0,8.89l3.88,6.72a8.87,8.87,0,0,0,7.69,4.44h7.76a8.89,8.89,0,0,0,7.7-4.44l3.88-6.72a8.88,8.88,0,0,0,0-8.89l-3.88-6.72A8.89,8.89,0,0,0,80.51,17.11Z"/><path class="cls-1" d="M108.65,68.33h-7.76a8.89,8.89,0,0,0-7.7,4.44l-3.88,6.72a8.88,8.88,0,0,0,0,8.89l3.88,6.72a8.89,8.89,0,0,0,7.7,4.44h7.76a8.87,8.87,0,0,0,7.69-4.44l3.88-6.72a8.88,8.88,0,0,0,0-8.89l-3.88-6.72A8.87,8.87,0,0,0,108.65,68.33Z"/><path class="cls-1" d="M50.94,66.54H43.18A8.9,8.9,0,0,0,35.48,71L31.6,77.7a8.93,8.93,0,0,0,0,8.89l3.88,6.72a8.91,8.91,0,0,0,7.7,4.45h7.76a8.9,8.9,0,0,0,7.7-4.45l3.88-6.72a8.88,8.88,0,0,0,0-8.89L58.64,71A8.89,8.89,0,0,0,50.94,66.54Z"/><path class="cls-1" d="M79.88,84.76H72.12a8.87,8.87,0,0,0-7.69,4.44l-3.88,6.72a8.88,8.88,0,0,0,0,8.89l3.88,6.72A8.87,8.87,0,0,0,72.12,116h7.76a8.89,8.89,0,0,0,7.7-4.44l3.88-6.72a8.88,8.88,0,0,0,0-8.89L87.58,89.2A8.89,8.89,0,0,0,79.88,84.76Z"/><path class="cls-1" d="M109.78,35.33H102a8.87,8.87,0,0,0-7.69,4.44l-3.88,6.72a8.88,8.88,0,0,0,0,8.89l3.88,6.72A8.87,8.87,0,0,0,102,66.54h7.76a8.89,8.89,0,0,0,7.7-4.44l3.88-6.72a8.88,8.88,0,0,0,0-8.89l-3.88-6.72A8.89,8.89,0,0,0,109.78,35.33Z"/><path class="cls-1" d="M108.65,102.18h-7.76a8.9,8.9,0,0,0-7.7,4.45l-3.88,6.72a8.86,8.86,0,0,0,0,8.88L93.19,129a8.9,8.9,0,0,0,7.7,4.45h7.76a8.88,8.88,0,0,0,7.69-4.45l3.88-6.72a8.86,8.86,0,0,0,0-8.88l-3.88-6.72A8.88,8.88,0,0,0,108.65,102.18Z"/><path class="cls-1" d="M110.56,1.5H102.8a8.9,8.9,0,0,0-7.7,4.44l-3.88,6.72a8.93,8.93,0,0,0,0,8.89l3.88,6.72a8.91,8.91,0,0,0,7.7,4.45h7.76a8.9,8.9,0,0,0,7.7-4.45l3.88-6.72a8.93,8.93,0,0,0,0-8.89l-3.88-6.72A8.89,8.89,0,0,0,110.56,1.5Z"/><path class="cls-1" d="M22,50.11H14.27a8.9,8.9,0,0,0-7.7,4.45L2.69,61.28a8.86,8.86,0,0,0,0,8.88l3.88,6.72a8.9,8.9,0,0,0,7.7,4.45H22a8.88,8.88,0,0,0,7.69-4.45l3.88-6.72a8.86,8.86,0,0,0,0-8.88l-3.88-6.72A8.88,8.88,0,0,0,22,50.11Z"/><path class="cls-1" d="M79.88,50.93H72.12a8.88,8.88,0,0,0-7.69,4.45L60.55,62.1a8.86,8.86,0,0,0,0,8.88l3.88,6.72a8.88,8.88,0,0,0,7.69,4.45h7.76a8.9,8.9,0,0,0,7.7-4.45L91.46,71a8.86,8.86,0,0,0,0-8.88l-3.88-6.72A8.9,8.9,0,0,0,79.88,50.93Z"/><path class="cls-1" d="M50.94,33.33H43.18a8.91,8.91,0,0,0-7.7,4.45L31.6,44.5a8.91,8.91,0,0,0,0,8.88l3.88,6.72a8.91,8.91,0,0,0,7.7,4.45h7.76a8.9,8.9,0,0,0,7.7-4.45l3.88-6.72a8.86,8.86,0,0,0,0-8.88l-3.88-6.72A8.9,8.9,0,0,0,50.94,33.33Z"/></g></g></g></svg>